<svg xmlns:mydata="http://www.w3.org/2000/svg" mydata:contrastcolor="ffffff" mydata:template="Contrast" mydata:presentation="2.5" mydata:layouttype="undefined" mydata:specialfontid="undefined" mydata:id1="234" mydata:id2="234" mydata:companyname="ANSI C" mydata:companytagline="" version="1.1" xmlns="http://www.w3.org/2000/svg" xmlns:xlink="http://www.w3.org/1999/xlink" viewBox="0 0 480 480" class="svg-primary-tile" style="transform: translate(-50%, -50%); width: 70%; height: auto; top: 50%; left: 50%;">
    <g fill="none" fill-rule="none" stroke="none" stroke-width="1" stroke-linecap="butt" stroke-linejoin="miter" stroke-miterlimit="10" stroke-dasharray="" stroke-dashoffset="0" font-family="none" font-weight="none" font-size="none" text-anchor="none" style="mix-blend-mode: normal">
        <g data-paper-data="{&quot;isGlobalGroup&quot;:true,&quot;bounds&quot;:{&quot;x&quot;:146.0001993201483,&quot;y&quot;:106,&quot;width&quot;:257.9996013597033,&quot;height&quot;:258}}">
            <g data-paper-data="{&quot;isIcon&quot;:&quot;true&quot;,&quot;iconType&quot;:&quot;icon&quot;,&quot;rawIconId&quot;:&quot;592370&quot;,&quot;selectedEffects&quot;:{&quot;container&quot;:&quot;enclosed_circle_outline3&quot;,&quot;transformation&quot;:&quot;&quot;,&quot;pattern&quot;:&quot;&quot;},&quot;isDetailed&quot;:false,&quot;fillRule&quot;:&quot;evenodd&quot;,&quot;blockLetter&quot;:&quot;O&quot;,&quot;blockLetterId&quot;:0,&quot;relativeBoundsIconToContainer&quot;:{&quot;top&quot;:0,&quot;left&quot;:-0.036850083472257086},&quot;widthRatioIconToContainer&quot;:0.9262998330554858,&quot;heightRatioIconToContainer&quot;:1,&quot;bounds&quot;:{&quot;x&quot;:209.5393057200899,&quot;y&quot;:159.2583436341162,&quot;width&quot;:136.4951346687324,&quot;height&quot;:151.48331273176765},&quot;iconStyle&quot;:&quot;standalone&quot;,&quot;suitableAsStandaloneIcon&quot;:true}" fill-rule="evenodd">
                <g data-paper-data="{&quot;isPathIcon&quot;:true}">
                    <path d="M209.5821,272.93446l65.62002,37.80719l60.77262,-35.12784l-9.56865,-16.58521l-51.20398,29.64186l-46.48272,-26.79244l-0.0428,-53.67047l46.44105,-26.87691l51.28845,29.59906l9.52585,-16.58633l-60.8143,-35.08504l-65.57835,37.89166z" fill="#a65523"></path>
                    <path d="M240.79734,254.86035l34.40478,19.81868l29.51459,-17.13932l-9.61145,-16.50074l-19.90315,11.52495l-15.26749,-8.76v-17.56392l15.22469,-8.76112l19.94594,11.48215l9.61145,-16.54353l-29.59906,-17.0526l-34.32031,19.81755z" fill="#f6be00"></path>
                    <path d="M340.46174,207.40454c3.71513,8.78252 5.5727,17.98101 5.5727,27.59546c0,9.61445 -1.85757,18.81331 -5.5727,27.59658c-0.92578,2.18944 -1.95067,4.31355 -3.07355,6.37459l-1.74682,-3.02849l-0.75684,-1.31209l-0.74107,-1.28505c0.45275,-0.9438 0.88524,-1.90224 1.29632,-2.87307c3.42719,-8.10452 5.14135,-16.59534 5.14135,-25.47247c0,-8.87713 -1.71416,-17.36795 -5.14135,-25.47134c-0.41671,-0.98547 -0.85595,-1.9563 -1.31546,-2.91362l0.4674,-0.81315l2.26264,-3.94076l0.50681,-0.88073c1.13301,2.07568 2.16691,4.21669 3.10058,6.42415z" fill="#f6be00"></path>
                </g>
            </g>
            <g data-paper-data="{&quot;isPrimaryText&quot;:true}" fill="#a65523" fill-rule="nonzero">
                <path d="M211.97556,135.90946l-2.61988,1.71696l10.59937,25.02402l2.58793,-1.69602l-2.01912,-4.61412l4.15347,-2.72201l3.42491,3.69282l2.58793,-1.69602zM214.85333,143.15789l7.8592,8.36832l-3.32277,2.17761z" data-paper-data="{&quot;glyphName&quot;:&quot;A&quot;,&quot;glyphIndex&quot;:0,&quot;firstGlyphOfWord&quot;:true,&quot;word&quot;:1}"></path>
                <path d="M241.86249,122.28586l6.11155,18.81993l-12.36064,-16.79062l-2.90655,0.94387l8.25885,25.43234l2.90655,-0.94387l-5.54523,-17.076l11.21301,15.23546l3.48786,-1.13264l-8.25885,-25.43234z" data-paper-data="{&quot;glyphName&quot;:&quot;N&quot;,&quot;glyphIndex&quot;:1,&quot;word&quot;:1}"></path>
                <path d="M273.50036,118.72821c-1.03464,-0.82938 -2.35969,-1.3387 -4.22926,-1.24791c-1.44988,0.07041 -6.30958,0.80359 -6.00757,7.02279c0.04262,0.87756 0.17046,3.51023 3.06137,5.54978c4.47638,3.18639 7.05202,4.24689 7.19099,7.10849c0.13897,2.8616 -1.00231,4.56154 -3.06266,4.66159c-1.18279,0.05744 -3.32206,-0.68006 -3.48141,-3.96135l-3.05237,0.14823c0.34312,5.49056 3.84745,6.77368 6.67089,6.63657c1.48803,-0.07226 6.30773,-0.84174 5.97792,-7.63327c-0.21123,-4.34963 -3.77224,-6.01244 -8.45236,-9.45665c-1.70365,-1.21758 -1.76664,-2.51484 -1.8,-3.20163c-0.17232,-3.54838 1.90951,-3.99368 3.09231,-4.05112c1.18279,-0.05744 3.32206,0.68006 3.48141,3.96135l3.05237,-0.14823c-0.18268,-2.97421 -1.40884,-4.59743 -2.44163,-5.38865z" data-paper-data="{&quot;glyphName&quot;:&quot;S&quot;,&quot;glyphIndex&quot;:2,&quot;word&quot;:1}"></path>
                <path d="M296.43112,119.34126l-3.01205,-0.51626l-4.51725,26.3554l3.01205,0.51626z" data-paper-data="{&quot;glyphName&quot;:&quot;I&quot;,&quot;glyphIndex&quot;:3,&quot;lastGlyphOfWord&quot;:true,&quot;word&quot;:1}"></path>
                <path d="M331.17832,155.35165c-1.13194,1.72446 -2.71097,3.15545 -5.01025,1.64619c-2.17154,-1.42541 -1.74019,-3.33558 -0.48248,-5.25164l7.29474,-11.11318c1.25771,-1.91607 2.83871,-3.0716 5.01025,-1.64619c2.29928,1.50926 1.61442,3.52718 0.48248,5.25164l2.55475,1.67695c2.18004,-3.32118 1.93094,-7.04882 -1.48605,-9.29174c-3.64053,-2.38966 -7.08288,-0.76525 -9.11618,2.33239l-7.29474,11.11318c-2.03331,3.09764 -2.15448,6.90209 1.48605,9.29174c3.41698,2.24292 6.93614,0.98879 9.11618,-2.33239z" data-paper-data="{&quot;glyphName&quot;:&quot;C&quot;,&quot;glyphIndex&quot;:4,&quot;firstGlyphOfWord&quot;:true,&quot;lastGlyphOfWord&quot;:true,&quot;word&quot;:2}"></path>
            </g>
            <g data-paper-data="{&quot;isContainerElementsWrapper&quot;:true}" fill="#a65523" fill-rule="evenodd">
                <path d="M275.0002,106c-17.48586,0 -34.22586,3.38246 -50.22011,10.14749c-15.4363,6.529 -29.10186,15.74091 -40.99667,27.63574c-11.89476,11.89473 -21.10664,25.56028 -27.63564,40.99667c-6.76506,15.99438 -10.14759,32.73441 -10.14759,50.22011c0,17.48566 3.38256,34.22526 10.14759,50.21971c6.529,15.43668 15.74088,29.1024 27.63564,40.99716c11.89476,11.89476 25.56028,21.10667 40.99657,27.63574c15.99438,6.76493 32.73445,10.14739 50.22021,10.14739c17.48576,0 34.22586,-3.38246 50.22031,-10.14739c15.43602,-6.52906 29.10141,-15.74098 40.99617,-27.63574c11.89476,-11.89476 21.10667,-25.56048 27.63574,-40.99716c6.76493,-15.99411 10.14739,-32.73402 10.14739,-50.21971c0,-17.48583 -3.38246,-34.22586 -10.14739,-50.22011c-6.5284,-15.43646 -15.74031,-29.10202 -27.63574,-40.99667c-11.8941,-11.89476 -25.55949,-21.10667 -40.99617,-27.63574c-15.99445,-6.76499 -32.73455,-10.14749 -50.22031,-10.14749zM216.79961,176.79941c-15.76676,15.76676 -23.79969,34.73695 -24.0988,56.91059h-44.11433c0.16235,-16.67074 3.47475,-32.64575 9.9374,-47.92513c6.39831,-15.12725 15.42628,-28.51968 27.08392,-40.17728c11.65749,-11.65756 25.04991,-20.68552 40.17726,-27.0839c15.67321,-6.62912 32.07825,-9.94368 49.21513,-9.94368c17.13688,0 33.54213,3.31456 49.21573,9.94368c15.12773,6.39851 28.52006,15.42648 40.17696,27.08391c11.65757,11.65776 20.68544,25.05019 27.08362,40.17727c6.46262,15.27982 9.77499,31.25486 9.93711,47.92513h-44.11354c-0.29964,-22.17357 -8.33291,-41.14376 -24.0998,-56.91059c-16.07118,-16.07165 -35.47121,-24.10747 -58.20009,-24.10747c-22.72874,0 -42.12894,8.03582 -58.20059,24.10747zM275.0002,155.27194c22.01664,0 40.80874,7.78395 56.37631,23.35185c15.56823,15.5679 23.35235,34.35997 23.35235,56.37621h-0.001c0,22.01591 -7.78345,40.80881 -23.35135,56.37671c-15.56823,15.56757 -34.36034,23.35135 -56.37631,23.35135c-22.01631,0 -40.80838,-7.78378 -56.37621,-23.35135c-15.5679,-15.56823 -23.35185,-34.36047 -23.35185,-56.37671c0,-22.01624 7.78395,-40.80831 23.35185,-56.37621c15.5679,-15.5679 34.35997,-23.35185 56.37621,-23.35185zM338.59887,325.95277c1.13214,1.72512 1.8168,3.74323 -0.48235,5.25209c-2.17159,1.42514 -3.7522,0.27008 -5.00991,-1.64638l-7.29512,-11.11309c-1.25771,-1.91646 -1.68924,-3.82595 0.48235,-5.25209c2.29916,-1.50885 3.87877,-0.07773 5.00991,1.64638l2.55528,-1.67628c-2.18056,-3.32167 -5.69956,-4.57539 -9.11591,-2.33304c-3.64058,2.38985 -3.51999,6.19487 -1.48693,9.29231l7.29512,11.11309c2.03307,3.09744 5.47532,4.72189 9.11591,2.33205c3.41734,-2.24235 3.66649,-5.97064 1.48593,-9.29131zM223.88704,310.2005l2.61986,1.71714l-10.59936,25.02365l-2.58793,-1.69621l2.01912,-4.61326l-4.15347,-2.72271l-3.42491,3.6934l-2.58793,-1.69621zM216.47283,327.99481l4.53643,-10.54603l-7.85919,8.36846zM243.93904,341.31936l6.11145,-18.81981l2.90659,0.94378l-8.25883,25.43225l-3.4879,-1.13214l-0.12248,-18.91648l-5.54529,17.07576l-2.90649,-0.94378l8.25883,-25.43225l2.90649,0.94378zM288.94055,325.04587l3.01203,-0.51624l4.51729,26.35511l-3.01203,0.51624zM274.66763,327.2344c-0.94936,-0.92584 -2.21883,-1.56068 -4.08845,-1.65137c-1.44985,-0.07076 -6.35771,0.18836 -6.65968,6.40715c-0.04265,0.87801 -0.17052,3.51003 2.50914,5.82015c0.81542,0.70858 1.56556,1.32947 2.24365,1.88956c2.77015,2.28919 4.33641,3.58378 4.22479,5.88194c-0.13903,2.86224 -1.43959,4.44384 -3.49996,4.34319c-1.18277,-0.05681 -3.24055,-0.99859 -3.08119,-4.2794l-3.05239,-0.14849c-0.19055,5.49825 3.17298,7.11473 5.99645,7.25127c1.48802,0.07275 6.35961,-0.22623 6.68938,-7.01806c0.1763,-3.63062 -2.15136,-5.62382 -5.44034,-8.44121c-0.65158,-0.5571 -1.34083,-1.14808 -2.05589,-1.78989c-1.57762,-1.37631 -1.51463,-2.67388 -1.48135,-3.36054c0.17231,-3.5489 2.2875,-3.79007 3.47036,-3.73227c1.18277,0.05681 3.24055,0.99859 3.08119,4.2794l3.05229,0.14849c0.10644,-2.97784 -0.95674,-4.71193 -1.90799,-5.5999z" data-paper-data="{&quot;isBaseLogoContainer&quot;:true}"></path>
            </g>
        </g>
    </g>
</svg>